<?xml version="1.0" standalone="no"?>
<!DOCTYPE svg PUBLIC "-//W3C//DTD SVG 20010904//EN"
 "http://www.w3.org/TR/2001/REC-SVG-20010904/DTD/svg10.dtd">
<svg version="1.0" xmlns="http://www.w3.org/2000/svg"
 width="340.000000pt" height="340.000000pt" viewBox="0 0 340.000000 340.000000"
 preserveAspectRatio="xMidYMid meet">
<metadata>
Created by potrace 1.14, written by Peter Selinger 2001-2017
</metadata>
<g transform="translate(0.000000,340.000000) scale(0.100000,-0.100000)"
fill="#000000" stroke="none">
<path d="M0 1700 l0 -1700 1700 0 1700 0 0 1700 0 1700 -1700 0 -1700 0 0
-1700z m1980 1525 c620 -122 1096 -593 1232 -1219 19 -86 22 -132 22 -306 0
-174 -3 -220 -22 -306 -46 -214 -140 -429 -259 -597 -75 -106 -255 -286 -361
-361 -104 -74 -300 -174 -412 -209 -183 -59 -268 -71 -490 -71 -174 0 -220 3
-306 22 -142 31 -242 65 -369 127 -449 218 -760 627 -851 1120 -26 139 -26
411 0 550 79 426 325 793 686 1027 47 31 109 68 139 83 137 68 346 133 496
154 103 14 394 6 495 -14z"/>
<path d="M1475 3149 c-212 -33 -414 -112 -605 -238 -113 -74 -317 -278 -391
-391 -168 -256 -249 -521 -249 -817 0 -402 144 -747 429 -1034 212 -212 452
-342 751 -406 121 -26 439 -26 560 0 590 126 1028 561 1156 1147 27 122 27
458 0 580 -96 441 -375 808 -765 1008 -227 117 -369 152 -636 157 -104 2 -217
0 -250 -6z m361 -590 c590 -104 905 -755 618 -1278 -230 -420 -763 -575 -1183
-345 -383 210 -549 673 -390 1086 102 265 347 470 634 531 83 18 238 21 321 6z"/>
<path d="M1501 2461 c-40 -10 -117 -40 -170 -66 -82 -41 -110 -62 -192 -144
-84 -85 -101 -108 -146 -201 -62 -126 -83 -215 -83 -350 0 -212 72 -391 219
-543 148 -154 343 -237 558 -237 138 0 226 21 353 83 93 45 116 62 201 146 84
84 102 109 148 201 62 125 81 208 81 350 0 142 -19 225 -81 350 -46 92 -64
116 -148 200 -102 102 -198 161 -325 202 -91 30 -315 34 -415 9z m341 -444
c66 -32 141 -109 171 -175 31 -67 31 -217 0 -284 -30 -66 -105 -143 -172 -175
-49 -25 -68 -28 -151 -28 -83 0 -102 3 -151 28 -67 32 -142 109 -172 175 -31
67 -31 217 0 284 25 54 90 128 140 159 92 57 237 64 335 16z"/>
<path d="M1572 1934 c-93 -46 -142 -127 -142 -234 0 -152 108 -260 259 -260
110 1 189 48 238 144 49 97 26 233 -54 308 -75 71 -205 90 -301 42z"/>
</g>
</svg>
