<svg width="26" height="34" viewBox="0 0 26 34" fill="none" xmlns="http://www.w3.org/2000/svg">
<path opacity="0.5" fill-rule="evenodd" clip-rule="evenodd" d="M7.11879 13.6754H18.1168V9.35083C18.1168 6.3138 15.6548 3.85181 12.6178 3.85181C9.58079 3.85181 7.11879 6.3138 7.11879 9.35083V13.6754ZM4.11879 13.6754H3.21924C1.56238 13.6754 0.219238 15.0185 0.219238 16.6754V30.1481C0.219238 31.805 1.56239 33.1481 3.21924 33.1481H22.8663C24.5232 33.1481 25.8663 31.805 25.8663 30.1481V16.6754C25.8663 15.0185 24.5231 13.6754 22.8663 13.6754H21.1168V9.35083C21.1168 4.65695 17.3117 0.851807 12.6178 0.851807C7.92393 0.851807 4.11879 4.65694 4.11879 9.35083V13.6754ZM13.9935 24.9364C15.3665 24.5275 16.3677 23.2555 16.3677 21.7496C16.3677 19.9135 14.8792 18.425 13.0431 18.425C11.2069 18.425 9.71844 19.9135 9.71844 21.7496C9.71844 23.076 10.4953 24.2211 11.6188 24.7545V27.6864C11.6188 28.3422 12.1504 28.8738 12.8061 28.8738C13.4619 28.8738 13.9935 28.3422 13.9935 27.6864V24.9364Z" fill="#365151"/>
</svg>
