<svg width="26" height="33" viewBox="0 0 26 33" fill="none" xmlns="http://www.w3.org/2000/svg">
<path fill-rule="evenodd" clip-rule="evenodd" d="M7.11879 13.1754H18.1168V8.85083C18.1168 5.8138 15.6548 3.35181 12.6178 3.35181C9.58079 3.35181 7.11879 5.8138 7.11879 8.85083V13.1754ZM4.11879 13.1754H3.21924C1.56238 13.1754 0.219238 14.5185 0.219238 16.1754V29.6481C0.219238 31.305 1.56239 32.6481 3.21924 32.6481H22.8663C24.5232 32.6481 25.8663 31.305 25.8663 29.6481V16.1754C25.8663 14.5185 24.5231 13.1754 22.8663 13.1754H21.1168V8.85083C21.1168 4.15695 17.3117 0.351807 12.6178 0.351807C7.92393 0.351807 4.11879 4.15694 4.11879 8.85083V13.1754ZM13.9935 24.4364C15.3665 24.0275 16.3677 22.7555 16.3677 21.2496C16.3677 19.4135 14.8792 17.925 13.0431 17.925C11.2069 17.925 9.71844 19.4135 9.71844 21.2496C9.71844 22.5761 10.4953 23.7211 11.6188 24.2545V27.1864C11.6188 27.8422 12.1504 28.3738 12.8061 28.3738C13.4619 28.3738 13.9935 27.8422 13.9935 27.1864V24.4364Z" fill="#365151"/>
</svg>