<?xml version="1.0" encoding="utf-8"?>
<!-- Generator: Adobe Illustrator 25.4.0, SVG Export Plug-In . SVG Version: 6.00 Build 0)  -->
<svg version="1.1" xmlns="http://www.w3.org/2000/svg" xmlns:xlink="http://www.w3.org/1999/xlink" x="0px" y="0px"
	 viewBox="0 0 945.5 386.8" style="enable-background:new 0 0 945.5 386.8;" xml:space="preserve">
<style type="text/css">
	.st0{fill:#365152;}
	.st1{opacity:0.18;fill:#365152;}
	.st2{opacity:0.4;fill:#365152;}
	.st3{opacity:0.37;fill:#365152;}
	.st4{opacity:0.22;fill:#365152;}
	.st5{opacity:0.13;fill:#365152;}
</style>
<g id="Calque_1">
	<g>
		<path class="st0" d="M60.3,294.8c0.7,0,1.1,0.4,1.1,1.1v4.5c0,0.6-0.4,1-1.1,1h-7.9c-8,0-12.9-5.9-12.9-13.8v-40.2
			c0-0.6,0.4-1,1-1h5c0.7,0,1.1,0.4,1.1,1v40c0,4.5,2.6,7.4,6.2,7.4H60.3z"/>
		<path class="st0" d="M89.1,300V260c0-8.6,5.3-14.4,13.4-14.4c8.1,0,13.5,5.8,13.5,14.4V300c0,0.7-0.4,1.1-1.1,1.1h-4.9
			c-0.6,0-1.1-0.4-1.1-1.1v-17.4H96.2V300c0,0.7-0.4,1.1-1,1.1h-5C89.5,301.1,89.1,300.7,89.1,300z M108.8,276.2v-16.5
			c0-4.7-2.3-7.4-6.3-7.4c-4,0-6.3,2.7-6.3,7.4v16.5H108.8z"/>
		<path class="st0" d="M188.4,300v-40.1c0-8.5,5.2-14.4,13.4-14.4c8.1,0,13.5,5.9,13.5,14.4V300c0,0.7-0.4,1.1-1.1,1.1h-4.9
			c-0.6,0-1.1-0.4-1.1-1.1v-40.5c0-4.5-2.4-7.4-6.3-7.4c-3.9,0-6.3,3-6.3,7.4V300c0,0.7-0.4,1.1-1,1.1h-5
			C188.8,301.1,188.4,300.7,188.4,300z"/>
		<path class="st0" d="M246.3,287.2v-26.9c0-8.8,5.7-14.7,13.9-14.7c8.1,0,13.8,5.9,13.8,14.2v28c0,8.2-5.6,14.2-13.8,14.2
			C252,301.9,246.3,296,246.3,287.2z M266.8,288.1v-28.6c0-4.3-2.7-7.3-6.7-7.3c-4,0-6.7,3-6.7,7.8v27.5c0,4.9,2.7,7.8,6.7,7.8
			C264.2,295.3,266.8,292.4,266.8,288.1z"/>
		<path class="st0" d="M311,246.4c0.6,0,1,0.4,1,1.1v40.5c0,4.5,2.4,7.4,6.3,7.4c3.9,0,6.3-3,6.3-7.4v-40.5c0-0.7,0.5-1.1,1.1-1.1
			h4.9c0.7,0,1.1,0.4,1.1,1.1v40.1c0,8.5-5.3,14.4-13.5,14.4c-8.1,0-13.4-5.9-13.4-14.4v-40.1c0-0.7,0.4-1.1,1-1.1H311z"/>
		<path class="st0" d="M389.9,247.5l-9.3,51.1c-0.3,1.9-1.5,2.9-3.4,2.9h-4.3c-1.9,0-3.1-1-3.4-2.9l-9.3-51.1
			c-0.1-0.6,0.2-1.1,0.9-1.1h5.1c0.6,0,1.1,0.3,1.2,0.9l7.7,45.9l7.7-45.9c0.1-0.6,0.5-0.9,1.1-0.9h5.1
			C389.7,246.4,390.1,246.8,389.9,247.5z"/>
		<path class="st0" d="M417.3,287.4v-27.2c0-8.1,5.5-14,13.4-14h8.2c0.6,0,1,0.4,1,1v4.5c0,0.7-0.4,1.1-1,1.1h-7.7
			c-4.1,0-6.8,3.1-6.8,7.6v9.9h12.5c0.7,0,1.1,0.4,1.1,1.1v4.2c0,0.7-0.4,1.1-1.1,1.1h-12.5v10.6c0,4.5,2.7,7.6,6.8,7.6h7.7
			c0.6,0,1,0.4,1,1.1v4.5c0,0.6-0.4,1-1,1h-8.2C422.8,301.4,417.3,295.4,417.3,287.4z"/>
		<path class="st0" d="M490.6,294.8c0.7,0,1.1,0.4,1.1,1.1v4.5c0,0.6-0.4,1-1.1,1h-7.9c-8,0-12.9-5.9-12.9-13.8v-40.2
			c0-0.6,0.4-1,1-1h5c0.7,0,1.1,0.4,1.1,1v40c0,4.5,2.6,7.4,6.2,7.4H490.6z"/>
		<path class="st0" d="M539.2,294.8c0.7,0,1.1,0.4,1.1,1.1v4.5c0,0.6-0.4,1-1.1,1h-7.9c-8,0-12.9-5.9-12.9-13.8v-40.2
			c0-0.6,0.4-1,1-1h5c0.7,0,1.1,0.4,1.1,1v40c0,4.5,2.6,7.4,6.2,7.4H539.2z"/>
		<path class="st0" d="M566.1,287.4v-27.2c0-8.1,5.5-14,13.4-14h8.2c0.6,0,1,0.4,1,1v4.5c0,0.7-0.4,1.1-1,1.1H580
			c-4.1,0-6.8,3.1-6.8,7.6v9.9h12.5c0.7,0,1.1,0.4,1.1,1.1v4.2c0,0.7-0.4,1.1-1.1,1.1h-12.5v10.6c0,4.5,2.7,7.6,6.8,7.6h7.7
			c0.6,0,1,0.4,1,1.1v4.5c0,0.6-0.4,1-1,1h-8.2C571.5,301.4,566.1,295.4,566.1,287.4z"/>
		<path class="st0" d="M657.3,286.5c0-0.7,0.4-1.1,1.1-1.1h4.9c0.6,0,1,0.4,1.1,1c0.2,5.9,2.4,8.9,6.7,8.9c4.1,0,6.3-2.3,6.3-6.5
			c0-12.1-19.6-15.8-19.6-30.8c0-7.7,5.2-12.5,12.9-12.5c7.7,0,12.8,5.9,13.1,15c0,0.6-0.3,1-1,1h-4.9c-0.6,0-1-0.4-1-1
			c-0.2-5.8-2.3-8.4-6-8.4c-3.8,0-5.9,2-5.9,5.9c0,11.2,19.7,14.9,19.7,30.8c0,8.1-5.4,13.1-13.5,13.1S657.6,296,657.3,286.5z"/>
		<path class="st0" d="M713.7,287.9v-28.3c0-8.5,5.4-14.1,13.4-14.1c7.7,0,12.9,5.9,13.1,15c0,0.6-0.3,1-1,1h-5c-0.6,0-1-0.3-1-1
			c-0.2-5.5-2.6-8.4-6.2-8.4c-3.9,0-6.2,2.7-6.2,7v29.1c0,4.4,2.3,7,6.2,7c4,0,6.4-3.2,6.6-8.9c0-0.7,0.4-1,1-1h5c0.6,0,1,0.4,1,1.1
			c-0.3,9.5-5.6,15.5-13.5,15.5C719.1,302,713.7,296.4,713.7,287.9z"/>
		<path class="st0" d="M769,287.4v-27.2c0-8.1,5.5-14,13.4-14h8.2c0.6,0,1,0.4,1,1v4.5c0,0.7-0.4,1.1-1,1.1H783
			c-4.1,0-6.8,3.1-6.8,7.6v9.9h12.5c0.7,0,1.1,0.4,1.1,1.1v4.2c0,0.7-0.4,1.1-1.1,1.1h-12.5v10.6c0,4.5,2.7,7.6,6.8,7.6h7.7
			c0.6,0,1,0.4,1,1.1v4.5c0,0.6-0.4,1-1,1h-8.2C774.5,301.4,769,295.4,769,287.4z M783.5,241c-0.5,0-1-0.2-1.3-0.6l-6.2-7
			c-0.6-0.7-0.3-1.3,0.5-1.3h4.5c0.5,0,1,0.2,1.3,0.6l5.1,7.1c0.5,0.6,0.2,1.3-0.7,1.3H783.5z"/>
		<path class="st0" d="M821.6,300v-40.1c0-8.5,5.2-14.4,13.4-14.4s13.5,5.9,13.5,14.4V300c0,0.7-0.4,1.1-1.1,1.1h-4.9
			c-0.6,0-1.1-0.4-1.1-1.1v-40.5c0-4.5-2.4-7.4-6.3-7.4s-6.3,3-6.3,7.4V300c0,0.7-0.4,1.1-1,1.1h-5C822,301.1,821.6,300.7,821.6,300
			z"/>
		<path class="st0" d="M879.5,287.4v-27.2c0-8.1,5.5-14,13.4-14h8.2c0.6,0,1,0.4,1,1v4.5c0,0.7-0.4,1.1-1,1.1h-7.7
			c-4.1,0-6.8,3.1-6.8,7.6v9.9h12.5c0.7,0,1.1,0.4,1.1,1.1v4.2c0,0.7-0.4,1.1-1.1,1.1h-12.5v10.6c0,4.5,2.7,7.6,6.8,7.6h7.7
			c0.6,0,1,0.4,1,1.1v4.5c0,0.6-0.4,1-1,1h-8.2C885,301.4,879.5,295.4,879.5,287.4z"/>
		<path class="st0" d="M42.6,354.1h30.1c0.4,0,0.7,0.3,0.7,0.7v2.4c0,0.4-0.3,0.7-0.7,0.7H42.6c-0.4,0-0.7-0.3-0.7-0.7v-2.4
			C41.9,354.4,42.2,354.1,42.6,354.1z"/>
		<path class="st0" d="M133.2,361.6v-23.8c0-7.1,4.4-12.1,11.2-12.1c6.5,0,10.8,4.9,11.1,11.4c0,0.4-0.3,0.7-0.7,0.7h-2.7
			c-0.4,0-0.7-0.2-0.7-0.7c-0.3-4.4-2.9-7.6-7.1-7.6c-4.5,0-7.2,3.3-7.2,8.4v23.8c0,5.1,3,8.4,7.3,8.4c4.3,0,7.3-3.3,7.3-7.7V352
			h-6.3c-0.4,0-0.7-0.3-0.7-0.7v-2.4c0-0.4,0.3-0.7,0.7-0.7h8.3c1.3,0,2,0.7,2,2v12.1c0,6.5-4.7,11.5-11.4,11.5
			C137.9,373.8,133.2,368.8,133.2,361.6z"/>
		<path class="st0" d="M182.2,332.8c0-1.5,1.1-2.6,2.6-2.6c1.5,0,2.6,1.1,2.6,2.6c0,1.4-1.1,2.6-2.6,2.6
			C183.3,335.4,182.2,334.3,182.2,332.8z M182.9,372.5v-32.1c0-0.4,0.3-0.7,0.7-0.7h2.5c0.4,0,0.7,0.3,0.7,0.7v32.1
			c0,0.4-0.3,0.7-0.7,0.7h-2.5C183.2,373.1,182.9,372.9,182.9,372.5z"/>
		<path class="st0" d="M215.3,372.5V327c0-0.4,0.3-0.7,0.7-0.7h2.5c0.4,0,0.7,0.3,0.7,0.7v45.4c0,0.4-0.3,0.7-0.7,0.7H216
			C215.6,373.1,215.3,372.9,215.3,372.5z"/>
		<path class="st0" d="M247.7,372.5V327c0-0.4,0.3-0.7,0.7-0.7h2.5c0.4,0,0.7,0.3,0.7,0.7v45.4c0,0.4-0.3,0.7-0.7,0.7h-2.5
			C248,373.1,247.7,372.9,247.7,372.5z"/>
		<path class="st0" d="M278.4,363.3v-13.6c0-6.1,3.9-10.6,10.2-10.6c6.1,0,10.2,4.4,10.2,10.3c0,5.5-4.1,9.8-10.2,9.8h-6.4v4.1
			c0,4,2.4,6.8,6.4,6.8c3.7,0,6.2-2.7,6.3-6.8c0-0.5,0.3-0.7,0.7-0.7h2.5c0.4,0,0.7,0.3,0.7,0.7c-0.2,6.3-4.3,10.5-10.2,10.5
			C282.5,373.7,278.4,369.5,278.4,363.3z M288.6,355.5c4,0,6.4-2.5,6.4-6.1c0-3.9-2.4-6.6-6.4-6.6c-4.1,0-6.4,2.7-6.4,6.9v5.8H288.6
			z"/>
		<path class="st0" d="M323.9,363.3c0-0.4,0.3-0.7,0.7-0.7h2.5c0.4,0,0.7,0.2,0.7,0.7c0.2,4.5,2.5,6.8,6.9,6.8c4,0,6-2.2,6-5.3
			c0-8.1-16.4-5.5-16.4-16.7c0-4.9,3.8-9,9.6-9c6.5,0,9.8,3.9,10.1,9.8c0,0.4-0.3,0.7-0.7,0.7h-2.5c-0.4,0-0.7-0.2-0.7-0.7
			c-0.2-3.5-2.2-6.1-6.1-6.1c-3.6,0-6,2.2-6,5.3c0,7.7,16.4,5.2,16.4,16.7c0,4.9-3.9,9-9.8,9C328.2,373.8,324.2,369.7,323.9,363.3z"
			/>
		<path class="st0" d="M407,371.3v-43c0-1.3,0.7-2,2-2h9c6.7,0,10.9,5,10.9,11.7v23.7c0,6.6-4.3,11.6-10.9,11.6h-9
			C407.7,373.3,407,372.5,407,371.3z M418,369.5c4.2,0,6.9-3.3,6.9-7.9v-23.7c0-4.6-2.6-7.9-6.9-7.9h-7v39.5H418z"/>
		<path class="st0" d="M455.2,363.3v-13.6c0-6.1,3.9-10.6,10.2-10.6c6.1,0,10.2,4.4,10.2,10.3c0,5.5-4.1,9.8-10.2,9.8H459v4.1
			c0,4,2.4,6.8,6.4,6.8c3.7,0,6.2-2.7,6.3-6.8c0-0.5,0.3-0.7,0.7-0.7h2.5c0.4,0,0.7,0.3,0.7,0.7c-0.2,6.3-4.3,10.5-10.2,10.5
			C459.3,373.7,455.2,369.5,455.2,363.3z M465.4,355.5c4,0,6.4-2.5,6.4-6.1c0-3.9-2.4-6.6-6.4-6.6c-4.1,0-6.4,2.7-6.4,6.9v5.8H465.4
			z"/>
		<path class="st0" d="M500.8,363.3c0-0.4,0.3-0.7,0.7-0.7h2.5c0.4,0,0.7,0.2,0.7,0.7c0.2,4.5,2.5,6.8,6.9,6.8c4,0,6-2.2,6-5.3
			c0-8.1-16.4-5.5-16.4-16.7c0-4.9,3.8-9,9.6-9c6.5,0,9.8,3.9,10.1,9.8c0,0.4-0.3,0.7-0.7,0.7h-2.5c-0.4,0-0.7-0.2-0.7-0.7
			c-0.2-3.5-2.2-6.1-6.1-6.1c-3.6,0-6,2.2-6,5.3c0,7.7,16.4,5.2,16.4,16.7c0,4.9-3.9,9-9.8,9C505,373.8,501,369.7,500.8,363.3z"/>
		<path class="st0" d="M541.7,386.2v-2.3c0-0.4,0.2-0.7,0.7-0.7h0.1c4.7-0.1,6.6-2.7,6.6-7v-35.7c0-0.4,0.3-0.7,0.7-0.7h2.5
			c0.4,0,0.7,0.3,0.7,0.7v35.7c0,6.3-3.5,10.6-10.4,10.7h-0.1C542,386.8,541.7,386.6,541.7,386.2z M548.3,332.8
			c0-1.5,1.1-2.6,2.6-2.6c1.5,0,2.6,1.1,2.6,2.6c0,1.4-1.1,2.6-2.6,2.6C549.4,335.4,548.3,334.3,548.3,332.8z"/>
		<path class="st0" d="M580.3,363.4c0-5.3,4.1-9.6,10.2-9.6h6.5v-4.3c0-3.9-2.3-6.7-6.3-6.7c-3.5,0-5.7,2.5-6,6.1
			c-0.1,0.5-0.3,0.7-0.7,0.7h-2.5c-0.4,0-0.7-0.3-0.7-0.7c0.3-5.7,4.1-9.8,9.8-9.8c6.1,0,10.1,4.5,10.1,10.4v14
			c0,5.9-4,10.4-10.2,10.4C584.4,373.7,580.3,369.3,580.3,363.4z M597,363.4v-5.9h-6.5c-3.9,0-6.3,2.7-6.3,5.9
			c0,3.9,2.4,6.7,6.5,6.7C594.6,370.1,597,367.3,597,363.4z"/>
		<path class="st0" d="M627.5,372.5v-22.6c0-6.1,4.5-10.3,10.5-10.3h2.9c0.4,0,0.7,0.3,0.7,0.7v2.3c0,0.4-0.3,0.7-0.7,0.7H638
			c-3.9,0-6.7,2.5-6.7,6.6v22.6c0,0.4-0.3,0.7-0.7,0.7h-2.5C627.7,373.1,627.5,372.9,627.5,372.5z"/>
		<path class="st0" d="M684.5,327v36.3c0,6-4.1,10.5-10.2,10.5c-6.1,0-10.2-4.5-10.2-10.5v-13.8c0-6,4.1-10.5,10.2-10.5
			c2.6,0,4.8,1.3,6.4,3.3V327c0-0.4,0.3-0.7,0.7-0.7h2.5C684.3,326.4,684.5,326.6,684.5,327z M680.7,349.6c0-4-2.4-6.8-6.4-6.8
			c-4,0-6.4,2.8-6.4,6.8v13.8c0,4,2.4,6.8,6.4,6.8c4,0,6.4-2.8,6.4-6.8V349.6z"/>
		<path class="st0" d="M711.8,332.8c0-1.5,1.1-2.6,2.6-2.6c1.5,0,2.6,1.1,2.6,2.6c0,1.4-1.1,2.6-2.6,2.6
			C712.9,335.4,711.8,334.3,711.8,332.8z M712.6,372.5v-32.1c0-0.4,0.3-0.7,0.7-0.7h2.5c0.4,0,0.7,0.3,0.7,0.7v32.1
			c0,0.4-0.3,0.7-0.7,0.7h-2.5C712.9,373.1,712.6,372.9,712.6,372.5z"/>
		<path class="st0" d="M744.1,372.5v-22.9c0-6,4-10.5,10-10.5c5.9,0,10,4.5,10,10.5v22.9c0,0.4-0.3,0.7-0.7,0.7h-2.5
			c-0.4,0-0.7-0.3-0.7-0.7v-22.9c0-4.1-2.3-6.9-6.1-6.9c-3.8,0-6.1,2.8-6.1,6.9v22.9c0,0.4-0.3,0.7-0.7,0.7h-2.5
			C744.4,373.1,744.1,372.9,744.1,372.5z"/>
		<path class="st0" d="M790.3,363.3c0-0.4,0.3-0.7,0.7-0.7h2.5c0.4,0,0.7,0.2,0.7,0.7c0.2,4.5,2.5,6.8,6.9,6.8c4,0,6-2.2,6-5.3
			c0-8.1-16.4-5.5-16.4-16.7c0-4.9,3.8-9,9.6-9c6.5,0,9.8,3.9,10.1,9.8c0,0.4-0.3,0.7-0.7,0.7h-2.5c-0.4,0-0.7-0.2-0.7-0.7
			c-0.2-3.5-2.2-6.1-6.1-6.1c-3.6,0-6,2.2-6,5.3c0,7.7,16.4,5.2,16.4,16.7c0,4.9-3.9,9-9.8,9C794.5,373.8,790.5,369.7,790.3,363.3z"
			/>
		<path class="st0" d="M870.6,354.1h30.1c0.4,0,0.7,0.3,0.7,0.7v2.4c0,0.4-0.3,0.7-0.7,0.7h-30.1c-0.4,0-0.7-0.3-0.7-0.7v-2.4
			C870,354.4,870.2,354.1,870.6,354.1z"/>
	</g>
</g>
<g id="Layer_2">
	<g>
		<path class="st1" d="M904.2,153.5c-10.7-2.7-27.3-7.6-46.9-15.8C753.6,94.3,739.7,29,656,6.6c-14.3-3.8-55.8-14.3-102.1,2.9
			c-11.7,4.3-23,10.2-48.1,27.4c-60.3,41.5-75.8,68.2-97.5,77.2C308.1,156,190.3-10.8,31.8,42.7c-13,4.4-23.3,9.4-29.6,12.7
			c6.7-1.3,17.5-3.3,30.6-4.7c176.5-18.6,237.8,120.7,375.8,117.7c125-2.7,141.7-114.9,246.5-85.4c49.1,13.8,91.9,51.4,188.5,65.6
			C869.1,152.3,890.2,153.3,904.2,153.5z"/>
		<path class="st1" d="M0,40.7c11.2,2.7,28.5,7.4,49.1,15.5c108.5,43.1,123.9,110.3,211.4,132c15,3.7,58.3,13.8,106.2-4.6
			c12.1-4.6,23.8-10.8,49.6-29c62.2-43.7,77.8-71.4,100.3-81.1c103.7-44.6,228.7,125.6,392.9,67.9c13.5-4.7,24.1-10,30.6-13.6
			c-7,1.5-18.1,3.6-31.8,5.3C724.9,155.1,659,12.4,515.5,17.6c-130,4.7-145.8,120.6-255.3,91.9C208.9,96.1,163.8,57.9,63,44.8
			C36.6,41.4,14.6,40.7,0,40.7z"/>
		<path class="st2" d="M274.5,156.4c40.8,10.2,74.8,4.3,93,1.2c81.2-13.9,89.7-57.5,146.7-75.3c10.7-3.3,21.5-4.6,32.5-4.4
			c67.1,1.8,138.5,38.2,196.6,49.6C706.4,116.4,610.3,37.6,516,37.8c-40.2-0.8-69.2,8.9-93.8,21.1
			C373.1,83.2,370.5,160.8,274.5,156.4z"/>
		<path class="st3" d="M37.4,41.6c10.3,2.5,26.1,6.8,44.8,14c98.7,38,110.2,92,190.2,112.3c13.7,3.5,53.3,13,98.4,0
			c11.4-3.3,22.4-7.8,47.1-21.4c59.3-32.6,74.8-54.2,96-61.1c97.7-31.9,206.5,107.8,360.7,67.5c12.7-3.3,22.7-7.2,28.8-9.7
			c-6.5,0.9-16.9,2.3-29.6,3.1C703.3,157.5,648.1,41.8,515.2,41c-120.4-0.7-139.6,90.9-239.8,64.3C228.4,92.9,188.2,61,95.6,47
			C71.2,43.4,50.9,42.1,37.4,41.6z"/>
		<path class="st4" d="M512.4,88.2c97.3-33.1,209.1,107.8,362.9,65.8c12.6-3.5,22.6-7.4,28.7-10.1c-6.5,1-16.9,2.5-29.6,3.5
			C704,160.5,647.4,45.4,514.5,46.2c-34.2,0.2-52.7,9.4-61.6,16.3c-14.5,11.3-2.6,65.5,13.4,50.1C478.5,100.9,498,93.1,512.4,88.2z"
			/>
	</g>
	<g>
		<path class="st0" d="M513,43.1c35.8-0.5,72.1,9.5,105.7,22.9c-31-14.3-63.8-24.8-103.5-25.1c-34.3-0.2-60.4,7.1-82.5,17
			C454.5,49.2,480.2,42.9,513,43.1z"/>
		<path class="st0" d="M874.9,149.5c-48.2,3.1-87.1-3.8-121.2-15.5c-47.9-8.6-108-33.1-165.6-43.5c79.7,23.1,170.6,96.1,287.6,65.6
			c12.7-3.3,22.7-7.2,28.8-9.7C898.1,147.3,887.7,148.6,874.9,149.5z"/>
		<path class="st0" d="M448.3,127c1.3-1,2.5-2,3.8-3C450.8,125,449.6,126,448.3,127z"/>
		<path class="st0" d="M403,73.6c-39,23-69.8,47.1-127.7,31.7C228.4,92.9,188.2,61,95.6,47c-24.3-3.7-44.6-4.9-58.1-5.4
			c10.2,2.7,26,7.3,44.8,14c97.6,35.2,117.7,88,190,106.3C353,165.5,365.1,103.1,403,73.6z"/>
	</g>
	<g>
		<path class="st5" d="M513,43.1c49.4-0.7,99.7,18.6,142.6,39.4C609.4,55,568.2,31.3,515.2,41c-3.4,0.6-6.7,1.4-9.9,2.2
			C507.8,43.1,510.4,43.1,513,43.1z"/>
		<path class="st5" d="M874.9,149.5c-40.7,2.7-77.1-1.5-107.7-10.6c-5.6-1.7-11-3.5-16.3-5.4c-47.4-9.1-106.3-32.7-162.7-43
			c79.7,23.1,170.6,96.1,287.6,65.6c12.7-3.3,22.7-7.2,28.8-9.7C898.1,147.3,887.7,148.6,874.9,149.5z"/>
		<path class="st5" d="M448.3,127c1.3-1,2.5-2,3.8-3C450.8,125,449.6,126,448.3,127z"/>
		<path class="st5" d="M354.5,129.4c-9.3,1.9-19.5,2.9-30.9,3c-42,0.1-82.4-14.3-88.7-16.6c-57-20.6-77.9-49.8-137.9-65.7
			c-25.1-6.6-46.4-8.1-59.5-8.5c10.2,2.7,26,7.3,44.8,14c97.6,35.2,117.7,88,190,106.3C313.2,163.7,336.5,148.6,354.5,129.4z"/>
	</g>
	<g>
		<path class="st0" d="M275.3,162.7c40.9,9.6,74.8,3.4,93,0c81-15,89-58.7,145.7-77.2c10.7-3.5,21.5-4.9,32.4-4.8
			c67.1,0.9,139,36.4,197.2,47c-37-10.6-134.1-88.1-228.4-86.7c-40.2-0.2-69.1,9.8-93.5,22.3C372.9,88.3,371.3,165.9,275.3,162.7z"
			/>
	</g>
	<path class="st5" d="M275.3,162.7c40.9,9.6,74.8,3.4,93,0c81-15,89-58.7,145.7-77.2c11.9-3.9,20.9-4,32.4-4.8
		c33.6-2.2,58.7,4.1,124.7,24.6c34.8,10.8,72.4,22.7,72.5,22.3c0.1-0.2-8.6-2.8-19.9-7.8c-15.7-7.1-26.3-14.5-29.9-16.9
		c-26.5-17.9-66.3-33.2-70.9-34.9c-23.3-8.9-55.9-21.4-97.9-18.7c-15.3,1-35,2.5-56.4,13.7c-22.1,11.6-22.7,21.4-50.2,46.4
		c-18.7,17-44.5,40.6-81.3,50.6C312.5,166.8,290.4,165.3,275.3,162.7z"/>
</g>
</svg>
