<?xml version="1.0" encoding="utf-8"?>
<!-- Generator: Adobe Illustrator 25.4.0, SVG Export Plug-In . SVG Version: 6.00 Build 0)  -->
<svg version="1.1" id="Layer_1" xmlns="http://www.w3.org/2000/svg" xmlns:xlink="http://www.w3.org/1999/xlink" x="0px" y="0px"
	 viewBox="0 0 812.1 79.2" style="enable-background:new 0 0 812.1 79.2;" xml:space="preserve">
<style type="text/css">
	.st0{fill:#365151;}
</style>
<g>
	<g>
		<path class="st0" d="M55.9,26.8c-3.4-9-9.8-13.5-19.2-13.5c-6.3,0-11.6,2.2-15.9,6.8c-4.1,4.5-6.2,11.1-6.2,19.6
			c0,8.5,2.1,15.1,6.2,19.6c4.2,4.5,9.5,6.8,15.9,6.8c9.4,0,15.8-4.5,19.2-13.5l13,3.3c-3.7,15-15.3,23.5-32.2,23.5
			c-10.3,0-19-3.5-26.1-10.5S0,52.1,0,39.7s3.5-22.2,10.6-29.2S26.4,0,36.7,0c16.9,0,28.5,8.5,32.2,23.5L55.9,26.8z"/>
		<path class="st0" d="M124.1,78.5l-5.7-18.3H93.8l-5.7,18.3H72.7L99,0.9h14.4l26.3,77.7H124.1z M106.2,20l-8.2,27h16.4L106.2,20z"
			/>
		<path class="st0" d="M140.8,14.2V0.9h57.5v13.3h-21.5v64.3h-14.4V14.2H140.8z"/>
		<path class="st0" d="M260,78.5l-5.7-18.3h-24.6l-5.7,18.3h-15.5l26.3-77.7h14.4l26.3,77.7H260z M242.1,20l-8.2,27h16.4L242.1,20z"
			/>
		<path class="st0" d="M320.7,48.1v30.4h-14.4V0.9h29.3c15.9,0,24.3,9.4,24.3,23.6c0,14.2-8.4,23.6-24.3,23.6H320.7z M335,34.8
			c6.8,0,10.2-3.4,10.2-10.3c0-6.9-3.4-10.3-10.2-10.3h-14.3v20.6H335z"/>
		<path class="st0" d="M460,0.9V49c0,20.1-11.2,30.4-29,30.4c-17.7,0-29-10.3-29-30.4V0.9h14.4v48.4c0,11.2,4.9,16.9,14.5,16.9
			c9.7,0,14.5-5.7,14.5-16.9V0.9H460z"/>
		<path class="st0" d="M517.9,0.9h14.4v64.3h32.9v13.3h-47.4V0.9z"/>
		<path class="st0" d="M618.2,14.2V0.9h57.5v13.3h-21.5v64.3h-14.4V14.2H618.2z"/>
		<path class="st0" d="M763,0.9h48v13.3h-33.6v16.3h27v13.3h-27v21.4h34.7v13.3H763V0.9z"/>
	</g>
</g>
</svg>
